0
SECTION
2
HEADER
9
$INSUNITS
70
4
9
$ACADVER
1
AC1014
9
$HANDSEED
5
FFFF
0
ENDSEC
0
SECTION
2
TABLES
0
TABLE
2
VPORT
5
8
100
AcDbSymbolTable
0
ENDTAB
0
TABLE
2
LTYPE
5
5
100
AcDbSymbolTable
0
LTYPE
5
14
100
AcDbSymbolTableRecord
100
AcDbLinetypeTableRecord
2
BYBLOCK
70
0
0
LTYPE
5
15
100
AcDbSymbolTableRecord
100
AcDbLinetypeTableRecord
2
BYLAYER
70
0
0
ENDTAB
0
TABLE
2
LAYER
5
2
100
AcDbSymbolTable
70
2
0
LAYER
5
50
100
AcDbSymbolTableRecord
100
AcDbLayerTableRecord
2
0
70
0
6
CONTINUOUS
0
ENDTAB
0
TABLE
2
STYLE
5
3
100
AcDbSymbolTable
70
1
0
STYLE
5
11
100
AcDbSymbolTableRecord
100
AcDbTextStyleTableRecord
2
STANDARD
70
0
0
ENDTAB
0
TABLE
2
VIEW
5
6
100
AcDbSymbolTable
70
0
0
ENDTAB
0
TABLE
2
UCS
5
7
100
AcDbSymbolTable
70
0
0
ENDTAB
0
TABLE
2
APPID
5
9
100
AcDbSymbolTable
70
2
0
APPID
5
12
100
AcDbSymbolTableRecord
100
AcDbRegAppTableRecord
2
ACAD
70
0
0
ENDTAB
0
TABLE
2
DIMSTYLE
5
A
100
AcDbSymbolTable
70
1
0
ENDTAB
0
TABLE
2
BLOCK_RECORD
5
1
100
AcDbSymbolTable
70
1
0
BLOCK_RECORD
5
1F
100
AcDbSymbolTableRecord
100
AcDbBlockTableRecord
2
*MODEL_SPACE
0
BLOCK_RECORD
5
1B
100
AcDbSymbolTableRecord
100
AcDbBlockTableRecord
2
*PAPER_SPACE
0
ENDTAB
0
ENDSEC
0
SECTION
2
BLOCKS
0
BLOCK
5
20
100
AcDbEntity
100
AcDbBlockBegin
2
*MODEL_SPACE
0
ENDBLK
5
21
100
AcDbEntity
100
AcDbBlockEnd
0
BLOCK
5
1C
100
AcDbEntity
100
AcDbBlockBegin
2
*PAPER_SPACE
0
ENDBLK
5
1D
100
AcDbEntity
100
AcDbBlockEnd
0
ENDSEC
0
SECTION
2
ENTITIES
0
LWPOLYLINE
5
100
100
AcDbEntity
8
OUTER_PROFILES
100
AcDbPolyline
90
28
70
1
43
0.0
10
250.78584013175373
20
78.349489932561028
10
250.78584013175373
20
106.84948993256079
42
0.41421356237309681
10
247.78584013175367
20
109.84948993256077
10
225.78584013175376
20
109.8494899325608
42
0.41421356237309853
10
222.78584013175373
20
106.84948993256079
10
222.78584013175367
20
68.563649800806886
10
219.78584013175373
20
68.563649800806886
10
219.78584013175373
20
76.063649800807354
10
76.785840131754156
20
76.063649800807283
10
76.785840131754156
20
68.563649800806814
10
73.785840131754156
20
68.563649800806814
10
73.785840131754142
20
106.84948993256064
42
0.41421356237309764
10
70.785840131754128
20
109.84948993256069
10
48.785840131754121
20
109.84948993256066
42
0.41421356237309243
10
45.785840131754128
20
106.84948993256069
10
45.785840131754149
20
78.349489932560914
10
46.785840131754036
20
78.3494899325609
10
46.785840131753879
20
56.000000000000014
10
-1.9142843494634748e-15
20
56
42
0.41421356237309492
10
-5
20
51
10
-5.0000000000000178
20
4.9999999999999964
42
0.41421356237309587
10
0
20
0
10
296.57168026350797
20
1.6042722705833512e-13
42
0.41421356237309453
10
301.57168026350797
20
5.000000000000151
10
301.57168026350791
20
51.000000000000163
42
0.41421356237309503
10
296.57168026350791
20
56.000000000000163
10
249.78584013175404
20
56.000000000000128
10
249.78584013175384
20
78.349489932560999
0
CIRCLE
5
101
100
AcDbEntity
8
INTERIOR_PROFILES
100
AcDbCircle
10
-128.7858401317539
20
39.031824900403635
30
0
40
1.3499999999999979
210
0
220
0
230
-1
0
CIRCLE
5
102
100
AcDbEntity
8
INTERIOR_PROFILES
100
AcDbCircle
10
-193.28584013175387
20
2.4318249004035852
30
0
40
1.6499999999999915
210
0
220
0
230
-1
0
LWPOLYLINE
5
103
100
AcDbEntity
8
INTERIOR_PROFILES
100
AcDbPolyline
90
4
70
1
43
0.0
10
108.28584013175387
20
51.063649800807276
10
113.28584013175387
20
51.063649800807283
10
113.28584013175389
20
25.000000000000036
10
108.28584013175389
20
25.000000000000032
0
CIRCLE
5
104
100
AcDbEntity
8
INTERIOR_PROFILES
100
AcDbCircle
10
-103.28584013175389
20
2.4318249004037451
30
0
40
1.6499999999999915
210
0
220
0
230
-1
0
CIRCLE
5
105
100
AcDbEntity
8
INTERIOR_PROFILES
100
AcDbCircle
10
227.78584013175177
20
104.84948993256083
30
0
40
1.7500000000000071
210
0
220
-0
230
1
0
CIRCLE
5
106
100
AcDbEntity
8
INTERIOR_PROFILES
100
AcDbCircle
10
-193.28584013175401
20
73.631824900403601
30
0
40
1.6499999999999915
210
0
220
0
230
-1
0
LWPOLYLINE
5
107
100
AcDbEntity
8
INTERIOR_PROFILES
100
AcDbPolyline
90
4
70
1
43
0.0
10
183.28584013175399
20
51.063649800807326
10
188.28584013175396
20
51.063649800807326
10
188.28584013175399
20
25.000000000000075
10
183.28584013175399
20
25.000000000000075
0
CIRCLE
5
108
100
AcDbEntity
8
INTERIOR_PROFILES
100
AcDbCircle
10
-167.78584013175393
20
39.031824900403663
30
0
40
1.3500000000000156
210
0
220
0
230
-1
0
CIRCLE
5
109
100
AcDbEntity
8
INTERIOR_PROFILES
100
AcDbCircle
10
245.78584013175185
20
84.849489932560857
30
0
40
1.7500000000000071
210
0
220
-0
230
1
0
CIRCLE
5
110
100
AcDbEntity
8
INTERIOR_PROFILES
100
AcDbCircle
10
-103.28584013175401
20
73.631824900403757
30
0
40
1.6499999999999915
210
0
220
0
230
-1
0
CIRCLE
5
111
100
AcDbEntity
8
INTERIOR_PROFILES
100
AcDbCircle
10
227.78584013175185
20
84.849489932560829
30
0
40
1.7500000000000071
210
0
220
-0
230
1
0
CIRCLE
5
112
100
AcDbEntity
8
INTERIOR_PROFILES
100
AcDbCircle
10
245.7858401317518
20
104.84948993256086
30
0
40
1.7500000000000071
210
0
220
-0
230
1
0
CIRCLE
5
113
100
AcDbEntity
8
INTERIOR_PROFILES
100
AcDbCircle
10
266.57168026350803
20
49.00000000000005
30
0
40
2.2499999999999964
210
0
220
0
230
1
0
CIRCLE
5
114
100
AcDbEntity
8
INTERIOR_PROFILES
100
AcDbCircle
10
294.57168026350803
20
9.0000000000001368
30
0
40
2.25
210
0
220
0
230
1
0
CIRCLE
5
115
100
AcDbEntity
8
INTERIOR_PROFILES
100
AcDbCircle
10
266.57168026350809
20
9.0000000000001013
30
0
40
2.25
210
0
220
0
230
1
0
CIRCLE
5
116
100
AcDbEntity
8
INTERIOR_PROFILES
100
AcDbCircle
10
-50.785840131756032
20
84.849489932560758
30
0
40
1.7500000000000071
210
0
220
0
230
-1
0
CIRCLE
5
117
100
AcDbEntity
8
INTERIOR_PROFILES
100
AcDbCircle
10
280.57168026350803
20
38.000000000000085
30
0
40
10
210
0
220
0
230
1
0
CIRCLE
5
118
100
AcDbEntity
8
INTERIOR_PROFILES
100
AcDbCircle
10
294.57168026350797
20
49.000000000000085
30
0
40
2.2499999999999964
210
0
220
0
230
1
0
CIRCLE
5
119
100
AcDbEntity
8
INTERIOR_PROFILES
100
AcDbCircle
10
-68.785840131756075
20
104.84948993256072
30
0
40
1.7500000000000071
210
0
220
0
230
-1
0
CIRCLE
5
120
100
AcDbEntity
8
INTERIOR_PROFILES
100
AcDbCircle
10
-68.785840131756046
20
84.849489932560715
30
0
40
1.7500000000000071
210
0
220
0
230
-1
0
CIRCLE
5
121
100
AcDbEntity
8
INTERIOR_PROFILES
100
AcDbCircle
10
-50.785840131756061
20
104.84948993256076
30
0
40
1.7500000000000071
210
0
220
0
230
-1
0
CIRCLE
5
122
100
AcDbEntity
8
INTERIOR_PROFILES
100
AcDbCircle
10
-1.9999999999999218
20
48.999999999999922
30
0
40
2.2499999999999964
210
0
220
0
230
-1
0
CIRCLE
5
123
100
AcDbEntity
8
INTERIOR_PROFILES
100
AcDbCircle
10
-15.99999999999989
20
37.999999999999943
30
0
40
10
210
0
220
0
230
-1
0
CIRCLE
5
124
100
AcDbEntity
8
INTERIOR_PROFILES
100
AcDbCircle
10
-1.9999999999999396
20
8.9999999999999769
30
0
40
2.25
210
0
220
0
230
-1
0
CIRCLE
5
125
100
AcDbEntity
8
INTERIOR_PROFILES
100
AcDbCircle
10
-29.999999999999858
20
48.999999999999915
30
0
40
2.2499999999999964
210
0
220
0
230
-1
0
CIRCLE
5
126
100
AcDbEntity
8
INTERIOR_PROFILES
100
AcDbCircle
10
-29.999999999999822
20
8.999999999999968
30
0
40
2.25
210
0
220
0
230
-1
0
LINE
5
127
100
AcDbEntity
8
BEND
100
AcDbLine
10
43.392920065876922
20
8.8817841970012523e-15
30
-1.8657741679676083e-14
11
43.392920065876915
21
56.000000000000014
31
-4.5724043562296384e-14
0
LINE
5
128
100
AcDbEntity
8
BEND
100
AcDbLine
10
46.785840131754043
20
73.456569866683893
30
-1.1160290621508228e-13
11
73.785840131754185
21
73.456569866683893
31
-3.5658595406710508e-13
0
LINE
5
129
100
AcDbEntity
8
BEND
100
AcDbLine
10
253.17876019763105
20
56.000000000000121
30
-3.0193979694044704e-12
11
253.17876019763111
21
1.2434497875801753e-13
31
-2.9925192327892095e-12
0
LINE
5
130
100
AcDbEntity
8
BEND
100
AcDbLine
10
222.78584013175367
20
73.456569866683992
30
-2.4595029648032261e-12
11
249.78584013175382
21
73.456569866684006
31
-2.9774854441895214e-12
0
LINE
5
131
100
AcDbEntity
8
BEND_EXTENT
100
AcDbLine
10
249.78584013175384
20
76.849489932561056
30
-3.0543972467756924e-12
11
222.78584013175367
21
76.849489932561056
31
-2.5358019396153267e-12
0
LINE
5
132
100
AcDbEntity
8
BEND_EXTENT
100
AcDbLine
10
222.78584013175367
20
70.063649800806886
30
-2.5802108606003329e-12
11
249.78584013175384
21
70.0636498008069
31
-2.8945251312296699e-12
0
LINE
5
133
100
AcDbEntity
8
BEND_EXTENT
100
AcDbLine
10
256.57168026350809
20
1.1546319456101628e-13
30
-3.0845668055533435e-12
11
256.57168026350803
21
56.000000000000128
31
-3.0490396687653385e-12
0
LINE
5
134
100
AcDbEntity
8
BEND_EXTENT
100
AcDbLine
10
249.78584013175404
20
56.000000000000128
30
-2.9300522680176773e-12
11
249.78584013175407
21
1.1546319456101628e-13
31
-2.9122886996236748e-12
0
LINE
5
135
100
AcDbEntity
8
BEND_EXTENT
100
AcDbLine
10
46.785840131754036
20
76.849489932560942
30
-1.890698203135657e-13
11
73.785840131754185
21
76.849489932560985
31
-4.3232981736689276e-13
0
LINE
5
136
100
AcDbEntity
8
BEND_EXTENT
100
AcDbLine
10
73.785840131754156
20
70.0636498008068
30
-4.6341606205639684e-13
11
46.785840131754043
21
70.063649800806786
31
-4.2520381063045037e-14
0
LINE
5
137
100
AcDbEntity
8
BEND_EXTENT
100
AcDbLine
10
46.785840131753879
20
56.000000000000014
30
-7.8047517851048027e-14
11
46.785840131753886
21
0
31
-6.0283949457045648e-14
0
LINE
5
138
100
AcDbEntity
8
BEND_EXTENT
100
AcDbLine
10
39.999999999999865
20
-8.8817841970012523e-15
30
5.412746108608044e-15
11
39.999999999999858
21
56.000000000000007
31
2.3176314502610675e-14
0
ENDSEC
0
SECTION
2
OBJECTS
0
DICTIONARY
5
C
100
AcDbDictionary
3
ACAD_GROUP
350
D
3
ACAD_MLINESTYLE
350
17
0
DICTIONARY
5
D
100
AcDbDictionary
0
DICTIONARY
5
1A
330
C
100
AcDbDictionary
0
DICTIONARY
5
17
100
AcDbDictionary
0
ENDSEC
0
EOF
